# xmcd
#
# Track frame offsets:
#	150
#	14580
#	33458
#	48531
#	64523
#	81101
#	93938
#	109520
#	126555
#	144156
#
# Disc length: 2120 seconds
#
# Revision: 0
# Processed by: cddbd v1.5.2PL0 Copyright (c) Steve Scherf et al.
# Submitted via: EasyCDDAExtractor 12.0.0.1
#
DISCID=8008460a
DTITLE=Frank Michael - 2014 - Bonjour l'amour
DYEAR=2014
DGENRE=Chanson Française
TTITLE0=Les femmes qu'on aime
TTITLE1=Italia for ever
TTITLE2=Garde-moi la dernière danse (Save the last forme)
TTITLE3=Demain
TTITLE4=Bonjour l'amour
TTITLE5=Aime-moi, comme je t'aime
TTITLE6=Dans les yeux d'Elisa
TTITLE7=Sans toi
TTITLE8=L'inconnue du premier rang
TTITLE9=Le Noël des souvenirs
EXTD=
EXTT0=
EXTT1=
EXTT2=
EXTT3=
EXTT4=
EXTT5=
EXTT6=
EXTT7=
EXTT8=
EXTT9=
PLAYORDER=
